<svg xmlns="http://www.w3.org/2000/svg" width="106.739" height="42" viewBox="0 0 106.739 42">
  <g id="Grupo_394" data-name="Grupo 394" transform="translate(578.449 -546.356)">
    <path id="Trazado_3002" data-name="Trazado 3002" d="M-514.714,713.359a.55.55,0,0,0-.4-.162.465.465,0,0,0-.393.16,1.383,1.383,0,0,0-.205.413,1.677,1.677,0,0,1-.584.815,1.581,1.581,0,0,1-.947.278,1.639,1.639,0,0,1-.9-.245,1.569,1.569,0,0,1-.594-.741,3.2,3.2,0,0,1-.21-1.243,2.751,2.751,0,0,1,.474-1.727,1.533,1.533,0,0,1,1.274-.608,1.456,1.456,0,0,1,.846.236,1.955,1.955,0,0,1,.6.712,1.626,1.626,0,0,0,.278.407.525.525,0,0,0,.374.118.5.5,0,0,0,.38-.17.563.563,0,0,0,.157-.393,1.516,1.516,0,0,0-.324-.863,2.512,2.512,0,0,0-.931-.767,3.008,3.008,0,0,0-1.386-.31,3.184,3.184,0,0,0-1.2.227,2.814,2.814,0,0,0-.984.662,2.953,2.953,0,0,0-.645,1.047,4,4,0,0,0-.225,1.386,4.354,4.354,0,0,0,.09.9,3.523,3.523,0,0,0,.269.8,3.183,3.183,0,0,0,.433.675,2.547,2.547,0,0,0,.623.535,2.59,2.59,0,0,0,.754.3,4.1,4.1,0,0,0,.922.1A2.969,2.969,0,0,0-516,715.68a2.418,2.418,0,0,0,.826-.557,2.39,2.39,0,0,0,.474-.7,1.71,1.71,0,0,0,.151-.662A.539.539,0,0,0-514.714,713.359Z" transform="translate(-45.554 -127.538)"/>
    <path id="Trazado_3003" data-name="Trazado 3003" d="M-481.856,715.4a1.371,1.371,0,0,0,.159.289.539.539,0,0,0,.184.148.58.58,0,0,0,.262.055.611.611,0,0,0,.448-.186.568.568,0,0,0,.186-.409,2.079,2.079,0,0,0-.2-.686l-1.674-4.135q-.118-.31-.195-.5a1.856,1.856,0,0,0-.188-.348.875.875,0,0,0-.293-.264.909.909,0,0,0-.452-.1.9.9,0,0,0-.448.1.855.855,0,0,0-.293.269,2.19,2.19,0,0,0-.21.418l-.168.431-1.639,4.162q-.1.249-.144.389a.908.908,0,0,0-.044.271.55.55,0,0,0,.188.407.609.609,0,0,0,.433.179.487.487,0,0,0,.415-.168,2.875,2.875,0,0,0,.306-.649l.306-.822h2.606l.306.8Q-481.941,715.208-481.856,715.4Zm-1.768-4.767.966,2.645h-1.915Z" transform="translate(-71.936 -127.538)"/>
    <path id="Trazado_3004" data-name="Trazado 3004" d="M-449.117,709.726a1.571,1.571,0,0,0-.192-.249.721.721,0,0,0-.219-.153.72.72,0,0,0-.3-.057.748.748,0,0,0-.415.125.7.7,0,0,0-.276.321,1.4,1.4,0,0,0-.07.494v4.944a.817.817,0,0,0,.166.553.557.557,0,0,0,.442.19.564.564,0,0,0,.437-.188.8.8,0,0,0,.17-.555V711.4l2.435,3.733q.105.153.21.3a1.554,1.554,0,0,0,.227.256.8.8,0,0,0,.262.159.922.922,0,0,0,.315.05q.7,0,.7-.844v-5.04a.829.829,0,0,0-.162-.557.555.555,0,0,0-.442-.186.538.538,0,0,0-.431.186.836.836,0,0,0-.16.557v3.812l-2.5-3.777Z" transform="translate(-100.099 -127.538)"/>
    <path id="Trazado_3005" data-name="Trazado 3005" d="M-413.666,709.726a1.587,1.587,0,0,0-.192-.249.72.72,0,0,0-.219-.153.72.72,0,0,0-.3-.057.749.749,0,0,0-.415.125.7.7,0,0,0-.275.321,1.4,1.4,0,0,0-.07.494v4.944a.817.817,0,0,0,.166.553.557.557,0,0,0,.441.19.564.564,0,0,0,.437-.188.8.8,0,0,0,.17-.555V711.4l2.435,3.733q.1.153.21.3a1.566,1.566,0,0,0,.227.256.8.8,0,0,0,.262.159.924.924,0,0,0,.315.05q.7,0,.7-.844v-5.04a.828.828,0,0,0-.162-.557.554.554,0,0,0-.441-.186.538.538,0,0,0-.431.186.836.836,0,0,0-.16.557v3.812l-2.5-3.777Z" transform="translate(-127.852 -127.538)"/>
    <path id="Trazado_3006" data-name="Trazado 3006" d="M-380,715.7a.606.606,0,0,0,.468.195.612.612,0,0,0,.468-.2.844.844,0,0,0,.184-.594V713.07l1.6-2.461a4.445,4.445,0,0,0,.284-.472.773.773,0,0,0,.083-.341.5.5,0,0,0-.164-.369.562.562,0,0,0-.409-.16.575.575,0,0,0-.267.057.653.653,0,0,0-.2.164,1.873,1.873,0,0,0-.164.229l-.184.3-1.211,1.945-1.2-1.945a4.494,4.494,0,0,0-.413-.6.521.521,0,0,0-.4-.151.6.6,0,0,0-.426.162.51.51,0,0,0-.173.385.779.779,0,0,0,.085.319,5.06,5.06,0,0,0,.291.512l1.565,2.426V715.1A.856.856,0,0,0-380,715.7Z" transform="translate(-153.698 -127.538)"/>
    <path id="Trazado_3007" data-name="Trazado 3007" d="M-330.758,710.633a.47.47,0,0,0,.151-.365.465.465,0,0,0-.151-.361.665.665,0,0,0-.461-.138h-3.427a1.1,1.1,0,0,0-.452.081.514.514,0,0,0-.26.258,1.075,1.075,0,0,0-.083.457v4.817a.84.84,0,0,0,.186.608.833.833,0,0,0,.61.188h3.528a.661.661,0,0,0,.461-.142.478.478,0,0,0,.155-.369.488.488,0,0,0-.155-.378.662.662,0,0,0-.461-.142h-3.025v-1.823h2.693a.625.625,0,0,0,.446-.138.47.47,0,0,0,.144-.356.453.453,0,0,0-.147-.352.641.641,0,0,0-.444-.133h-2.693v-1.574h2.924A.667.667,0,0,0-330.758,710.633Z" transform="translate(-190.243 -127.932)"/>
    <path id="Trazado_3008" data-name="Trazado 3008" d="M-302.821,709.461a.619.619,0,0,0-.474-.194.6.6,0,0,0-.466.2.858.858,0,0,0-.177.59v4.935a.839.839,0,0,0,.186.608.832.832,0,0,0,.61.188h3.134a.712.712,0,0,0,.485-.147.485.485,0,0,0,.166-.382.5.5,0,0,0-.168-.385.694.694,0,0,0-.483-.153h-2.632v-4.664A.843.843,0,0,0-302.821,709.461Z" transform="translate(-214.907 -127.538)"/>
    <path id="Trazado_3009" data-name="Trazado 3009" d="M-270.1,710.633a.471.471,0,0,0,.151-.365.465.465,0,0,0-.151-.361.665.665,0,0,0-.461-.138h-3.427a1.094,1.094,0,0,0-.452.081.515.515,0,0,0-.26.258,1.079,1.079,0,0,0-.083.457v4.817a.839.839,0,0,0,.186.608.833.833,0,0,0,.61.188h3.528a.661.661,0,0,0,.461-.142.478.478,0,0,0,.155-.369.488.488,0,0,0-.155-.378.662.662,0,0,0-.461-.142h-3.025v-1.823h2.693a.626.626,0,0,0,.446-.138.471.471,0,0,0,.144-.356.453.453,0,0,0-.147-.352.641.641,0,0,0-.444-.133h-2.693v-1.574h2.925A.667.667,0,0,0-270.1,710.633Z" transform="translate(-237.726 -127.932)"/>
    <path id="Trazado_3010" data-name="Trazado 3010" d="M-244.057,709.47a.526.526,0,0,0-.47-.2.6.6,0,0,0-.45.184.569.569,0,0,0-.179.406,1.014,1.014,0,0,0,.028.214,1.74,1.74,0,0,0,.07.236c.028.073.055.147.081.223l1.526,4.153q.083.24.166.455a2,2,0,0,0,.195.383.846.846,0,0,0,.293.271.889.889,0,0,0,.444.1.873.873,0,0,0,.444-.1.863.863,0,0,0,.291-.269,1.939,1.939,0,0,0,.192-.38q.083-.216.166-.457l1.552-4.188q.039-.113.079-.221a1.9,1.9,0,0,0,.066-.219.915.915,0,0,0,.026-.208.544.544,0,0,0-.081-.278.61.61,0,0,0-.223-.221.6.6,0,0,0-.308-.083.552.552,0,0,0-.358.107.632.632,0,0,0-.188.241q-.057.133-.17.474l-1.456,4.328-1.451-4.3A2.7,2.7,0,0,0-244.057,709.47Z" transform="translate(-260.924 -127.538)"/>
    <path id="Trazado_3011" data-name="Trazado 3011" d="M-210.174,715.4a1.378,1.378,0,0,0,.16.289.536.536,0,0,0,.184.148.58.58,0,0,0,.262.055.61.61,0,0,0,.448-.186.568.568,0,0,0,.186-.409,2.078,2.078,0,0,0-.2-.686l-1.674-4.135q-.118-.31-.195-.5a1.859,1.859,0,0,0-.188-.348.873.873,0,0,0-.293-.264.909.909,0,0,0-.453-.1.9.9,0,0,0-.448.1.853.853,0,0,0-.293.269,2.184,2.184,0,0,0-.21.418l-.168.431-1.639,4.162q-.1.249-.144.389a.906.906,0,0,0-.044.271.549.549,0,0,0,.188.407.609.609,0,0,0,.433.179.486.486,0,0,0,.415-.168,2.882,2.882,0,0,0,.306-.649l.306-.822h2.605l.306.8Q-210.26,715.208-210.174,715.4Zm-1.768-4.767.966,2.645h-1.915Z" transform="translate(-284.627 -127.538)"/>
    <path id="Trazado_3012" data-name="Trazado 3012" d="M-180.189,710.695a.491.491,0,0,0,.166-.387.5.5,0,0,0-.164-.389.726.726,0,0,0-.5-.149h-4.127a.729.729,0,0,0-.487.144.491.491,0,0,0-.168.393.5.5,0,0,0,.162.387.718.718,0,0,0,.494.146h1.416V715.5a.851.851,0,0,0,.182.594.61.61,0,0,0,.47.2.6.6,0,0,0,.463-.195.856.856,0,0,0,.179-.6v-4.656h1.416A.735.735,0,0,0-180.189,710.695Z" transform="translate(-307.652 -127.932)"/>
    <path id="Trazado_3013" data-name="Trazado 3013" d="M-152.825,709.5a2.655,2.655,0,0,0-.979.662,2.908,2.908,0,0,0-.614,1.049,4.144,4.144,0,0,0-.212,1.355,4.282,4.282,0,0,0,.2,1.342,2.921,2.921,0,0,0,.6,1.062,2.669,2.669,0,0,0,.992.684,3.536,3.536,0,0,0,1.346.243,3.568,3.568,0,0,0,1.342-.236,2.636,2.636,0,0,0,.988-.682,2.923,2.923,0,0,0,.6-1.054,4.284,4.284,0,0,0,.2-1.351,3.918,3.918,0,0,0-.367-1.751,2.621,2.621,0,0,0-1.082-1.15,3.422,3.422,0,0,0-1.711-.4A3.526,3.526,0,0,0-152.825,709.5Zm2.909,4.347a1.722,1.722,0,0,1-.664.769,1.754,1.754,0,0,1-.916.249,1.745,1.745,0,0,1-.715-.144,1.633,1.633,0,0,1-.577-.435,2.025,2.025,0,0,1-.389-.732,3.311,3.311,0,0,1-.138-.988,3.23,3.23,0,0,1,.138-.977,2.031,2.031,0,0,1,.376-.715,1.581,1.581,0,0,1,.568-.426,1.753,1.753,0,0,1,.719-.146,1.785,1.785,0,0,1,.968.265,1.7,1.7,0,0,1,.649.78,3.011,3.011,0,0,1,.227,1.22A2.975,2.975,0,0,1-149.915,713.844Z" transform="translate(-331.795 -127.538)"/>
    <path id="Trazado_3014" data-name="Trazado 3014" d="M-114.2,713.53a1.237,1.237,0,0,1,.448.341,4.777,4.777,0,0,1,.5.726l.52.866q.184.306.291.463a.984.984,0,0,0,.256.26.631.631,0,0,0,.367.1.7.7,0,0,0,.324-.072.571.571,0,0,0,.221-.2.458.458,0,0,0,.081-.252,1.443,1.443,0,0,0-.138-.448,5.684,5.684,0,0,0-.385-.73,5.514,5.514,0,0,0-.562-.763,2.38,2.38,0,0,0-.66-.542,2.319,2.319,0,0,0,1.226-.608,1.6,1.6,0,0,0,.4-1.145,1.829,1.829,0,0,0-.12-.662,1.59,1.59,0,0,0-.352-.549,1.622,1.622,0,0,0-.533-.363,1.888,1.888,0,0,0-.56-.151,6.454,6.454,0,0,0-.748-.037h-2.111a.834.834,0,0,0-.608.188.834.834,0,0,0-.188.608V715.5a.89.89,0,0,0,.171.59.6.6,0,0,0,.481.2.61.61,0,0,0,.468-.192.855.855,0,0,0,.179-.6v-2.059h.455A1.539,1.539,0,0,1-114.2,713.53Zm1.067-2.688a.819.819,0,0,1,.376.3.828.828,0,0,1,.135.47.791.791,0,0,1-.168.536.923.923,0,0,1-.487.275,3.247,3.247,0,0,1-.787.081h-1.163v-1.762h1.2a2.7,2.7,0,0,1,.9.1Z" transform="translate(-361.629 -127.932)"/>
    <path id="Trazado_3015" data-name="Trazado 3015" d="M-154.214,546.365V576.4h14.625v-9.056h-5.556V546.365Z" transform="translate(-332.121 -0.007)" fill="#1c4595" fill-rule="evenodd"/>
    <path id="Trazado_3016" data-name="Trazado 3016" d="M-307.116,576.4V546.365h8.679l9.71,14.577V546.365h9.186V576.4h-9.186l-9.641-14.543V576.4Z" transform="translate(-212.419 -0.007)" fill="#1c4595" fill-rule="evenodd"/>
    <path id="Trazado_3017" data-name="Trazado 3017" d="M-433.308,546.376A15.023,15.023,0,0,1-418.286,561.4a15.023,15.023,0,0,1-15.023,15.023A15.023,15.023,0,0,1-448.331,561.4,15.023,15.023,0,0,1-433.308,546.376Z" transform="translate(-101.866 -0.016)" fill="#1c4595" fill-rule="evenodd"/>
    <path id="Trazado_3018" data-name="Trazado 3018" d="M-501.39,546.356l-10.653,14.786,10.791,15.245h18.46l-.436-30.031" transform="translate(-51.987 0)" fill="#1c4595" fill-rule="evenodd"/>
    <path id="Trazado_3019" data-name="Trazado 3019" d="M-431.3,548.947a14.465,14.465,0,0,1,14.464,14.465A14.464,14.464,0,0,1-431.3,577.876a14.464,14.464,0,0,1-14.465-14.464A14.465,14.465,0,0,1-431.3,548.947Z" transform="translate(-103.878 -2.028)" fill="#fff" fill-rule="evenodd"/>
    <path id="Trazado_3020" data-name="Trazado 3020" d="M-410.589,575.4a8.721,8.721,0,0,1,8.721,8.721,8.721,8.721,0,0,1-8.721,8.721,8.721,8.721,0,0,1-8.721-8.721A8.721,8.721,0,0,1-410.589,575.4Z" transform="translate(-124.585 -22.735)" fill="#f6dd02" fill-rule="evenodd"/>
    <path id="Trazado_3021" data-name="Trazado 3021" d="M-567.13,546.365h11.181L-566.6,561.149l10.791,15.255H-567.13l-11.319-14.911Z" transform="translate(0 -0.007)" fill="#1c4595" fill-rule="evenodd"/>
  </g>
</svg>
