<svg xmlns="http://www.w3.org/2000/svg" width="160" height="32.581" viewBox="0 0 160 32.581">
  <g id="Grupo_349" data-name="Grupo 349" transform="translate(-1498.488 -148.422)">
    <g id="Grupo_347" data-name="Grupo 347" transform="translate(1498.488 148.422)">
      <path id="Trazado_2946" data-name="Trazado 2946" d="M1498.488,153.475l8.8,5.082,8.718-5.033-8.825-5.1Z" transform="translate(-1498.488 -148.422)" fill="#66737c" fill-rule="evenodd"/>
      <path id="Trazado_2947" data-name="Trazado 2947" d="M1502.377,180.837l2.629-1.671,5.131,2.971,4.74-2.746,2.756,1.593-7.5,4.329Z" transform="translate(-1501.341 -170.976)" fill="#66737c" fill-rule="evenodd"/>
      <path id="Trazado_2948" data-name="Trazado 2948" d="M1507.036,199.054l2.395-1.544,4.124,2.375,3.773-2.18,2.6,1.437-6.372,3.675Z" transform="translate(-1504.758 -184.433)" fill="#66737c" fill-rule="evenodd"/>
      <path id="Trazado_2949" data-name="Trazado 2949" d="M1514.469,215.23l-2.59,1.505,5.228,3.02,5-2.883-2.365-1.642-2.639,1.534Z" transform="translate(-1508.312 -197.433)" fill="#66737c" fill-rule="evenodd"/>
      <path id="Trazado_2950" data-name="Trazado 2950" d="M1517.763,231.812l-2.326,1.5,4.281,2.463,4.163-2.4-2.326-1.486-1.837,1.065Z" transform="translate(-1510.922 -209.598)" fill="#66737c" fill-rule="evenodd"/>
      <path id="Trazado_2951" data-name="Trazado 2951" d="M1639.6,208.04v-16.1a2.643,2.643,0,1,1,5.279,0c0,2.417-1.833,2.723-4.14,2.723v3.89h1.5a6.641,6.641,0,1,0-6.752-6.641V208.04Z" transform="translate(-1598.992 -175.458)" fill="#66737c"/>
      <path id="Trazado_2952" data-name="Trazado 2952" d="M1580.92,183.934l-1.942,7.449-2.035-7.449h-5.625v14.025h3.226V187.931l2.7,10.028h2.733l2.594-10.028v10.028h4V183.934Z" transform="translate(-1551.917 -174.474)" fill="#66737c"/>
    </g>
    <g id="Grupo_348" data-name="Grupo 348" transform="translate(1554.139 158.694)">
      <path id="Trazado_2953" data-name="Trazado 2953" d="M1707.4,199.046h2.013l.99-3.085h4.091l.99,3.085h2.013l-3.877-11.383h-2.326Zm5.032-9.551h.033l1.567,5h-3.167Z" transform="translate(-1707.397 -187.482)" fill="#b11831"/>
      <path id="Trazado_2954" data-name="Trazado 2954" d="M1758.987,187.3a14.062,14.062,0,0,0-2.788-.313c-2.145,0-3.91.907-3.91,2.936,0,3.233,5.427,3.382,5.427,5.856,0,.742-.478,1.584-2,1.584a6.08,6.08,0,0,1-3.217-1.105v2a12.693,12.693,0,0,0,3.151.478c2.475,0,4.19-1.105,4.19-3.233,0-3.431-5.427-3.728-5.427-5.741,0-.973.759-1.4,1.715-1.4a7.532,7.532,0,0,1,2.854.726Z" transform="translate(-1740.33 -186.982)" fill="#b11831"/>
      <path id="Trazado_2955" data-name="Trazado 2955" d="M1797.946,196.369a5.4,5.4,0,0,1-2.656.841c-2.326,0-3.1-1.98-3.1-4.7,0-1.782.363-4.157,2.359-4.157,1.485,0,1.683,1.039,1.683,1.93h2.144c0-1.765-1.187-3.3-3.827-3.3-3.25,0-4.487,2.475-4.487,5.823,0,3.547,1.468,5.922,4.784,5.922a8.237,8.237,0,0,0,3.1-.66Z" transform="translate(-1768.04 -186.982)" fill="#b11831"/>
      <path id="Trazado_2956" data-name="Trazado 2956" d="M1831.239,199.046h6.78v-1.468h-4.85v-3.7h4.471v-1.468h-4.471v-3.283h4.718v-1.468h-6.648Z" transform="translate(-1798.248 -187.482)" fill="#b11831"/>
      <path id="Trazado_2957" data-name="Trazado 2957" d="M1868.33,199.046h1.765v-8.793h.033l4.6,8.793h2.161V187.663h-1.765v8.38h-.033l-4.388-8.38h-2.375Z" transform="translate(-1825.459 -187.482)" fill="#b11831"/>
      <path id="Trazado_2958" data-name="Trazado 2958" d="M1918.8,187.3a14.058,14.058,0,0,0-2.788-.313c-2.145,0-3.91.907-3.91,2.936,0,3.233,5.428,3.382,5.428,5.856,0,.742-.479,1.584-2,1.584a6.078,6.078,0,0,1-3.217-1.105v2a12.691,12.691,0,0,0,3.151.478c2.474,0,4.19-1.105,4.19-3.233,0-3.431-5.427-3.728-5.427-5.741,0-.973.759-1.4,1.715-1.4a7.529,7.529,0,0,1,2.854.726Z" transform="translate(-1857.574 -186.982)" fill="#b11831"/>
      <path id="Trazado_2959" data-name="Trazado 2959" d="M1954.482,198.727c3.547,0,4.6-2.557,4.6-5.873s-1.056-5.873-4.6-5.873c-3.564,0-4.6,2.557-4.6,5.873S1950.918,198.727,1954.482,198.727Zm-2.475-5.873c0-2.425.511-4.5,2.475-4.5,1.947,0,2.474,2.079,2.474,4.5s-.528,4.5-2.474,4.5C1952.518,197.358,1952.007,195.28,1952.007,192.855Z" transform="translate(-1885.284 -186.982)" fill="#b11831"/>
      <path id="Trazado_2960" data-name="Trazado 2960" d="M1996.629,199.046h1.93v-4.883h.759c1.765,0,2,.61,2.392,2.425l.528,2.458h1.963l-.693-3.2c-.264-1.2-.445-2.177-2.029-2.524v-.033a2.486,2.486,0,0,0,2.26-2.64c0-2.227-1.518-2.986-3.662-2.986h-3.448Zm1.93-10.013h1.518c1.089,0,1.7.643,1.7,1.831,0,1.683-1.254,1.93-2.458,1.93h-.759Z" transform="translate(-1919.58 -187.482)" fill="#b11831"/>
      <path id="Trazado_2961" data-name="Trazado 2961" d="M2036.135,199.046h6.78v-1.468h-4.85v-3.7h4.471v-1.468h-4.471v-3.283h4.718v-1.468h-6.648Z" transform="translate(-1948.562 -187.482)" fill="#b11831"/>
      <path id="Trazado_2962" data-name="Trazado 2962" d="M2077.446,187.3a14.051,14.051,0,0,0-2.788-.313c-2.145,0-3.909.907-3.909,2.936,0,3.233,5.427,3.382,5.427,5.856,0,.742-.479,1.584-2,1.584a6.077,6.077,0,0,1-3.217-1.105v2a12.687,12.687,0,0,0,3.151.478c2.474,0,4.19-1.105,4.19-3.233,0-3.431-5.427-3.728-5.427-5.741,0-.973.759-1.4,1.716-1.4a7.531,7.531,0,0,1,2.854.726Z" transform="translate(-1973.956 -186.982)" fill="#b11831"/>
    </g>
  </g>
</svg>
