<svg xmlns="http://www.w3.org/2000/svg" width="160" height="35.019" viewBox="0 0 160 35.019">
  <g id="Grupo_385" data-name="Grupo 385" transform="translate(-704.477 -587.444)">
    <path id="Trazado_2964" data-name="Trazado 2964" d="M852.43,691.911a.618.618,0,0,0,.2-.479.611.611,0,0,0-.2-.474.874.874,0,0,0-.606-.181h-4.5a1.44,1.44,0,0,0-.594.106.679.679,0,0,0-.342.339,1.421,1.421,0,0,0-.109.6v6.327a.893.893,0,0,0,1.045,1.045h4.633a.87.87,0,0,0,.606-.186.628.628,0,0,0,.2-.485.642.642,0,0,0-.2-.5.871.871,0,0,0-.606-.186h-3.973v-2.394h3.537a.822.822,0,0,0,.586-.181.618.618,0,0,0,.189-.468.6.6,0,0,0-.192-.462.842.842,0,0,0-.583-.175h-3.537v-2.067h3.841A.875.875,0,0,0,852.43,691.911Z" transform="translate(-105.492 -76.874)" fill="#010202"/>
    <path id="Trazado_2965" data-name="Trazado 2965" d="M881.914,690.472a.813.813,0,0,0-.623-.256.783.783,0,0,0-.612.258,1.127,1.127,0,0,0-.232.775v6.482a.893.893,0,0,0,1.045,1.045h4.117a.936.936,0,0,0,.637-.192.638.638,0,0,0,.218-.5.655.655,0,0,0-.221-.505.912.912,0,0,0-.634-.2h-3.457v-6.126A1.107,1.107,0,0,0,881.914,690.472Z" transform="translate(-130.912 -76.457)" fill="#010202"/>
    <path id="Trazado_2966" data-name="Trazado 2966" d="M918.144,691.911a.618.618,0,0,0,.2-.479.611.611,0,0,0-.2-.474.875.875,0,0,0-.606-.181h-4.5a1.44,1.44,0,0,0-.594.106.679.679,0,0,0-.342.339,1.421,1.421,0,0,0-.109.6v6.327a.893.893,0,0,0,1.045,1.045h4.633a.87.87,0,0,0,.606-.186.628.628,0,0,0,.2-.485.642.642,0,0,0-.2-.5.871.871,0,0,0-.606-.186H913.7v-2.394h3.537a.822.822,0,0,0,.586-.181.618.618,0,0,0,.19-.468.6.6,0,0,0-.192-.462.842.842,0,0,0-.583-.175H913.7v-2.067h3.841A.875.875,0,0,0,918.144,691.911Z" transform="translate(-154.38 -76.874)" fill="#010202"/>
    <path id="Trazado_2967" data-name="Trazado 2967" d="M945.52,690.483a.691.691,0,0,0-.617-.267.792.792,0,0,0-.591.241.749.749,0,0,0-.235.534,1.33,1.33,0,0,0,.037.281,2.274,2.274,0,0,0,.092.31c.036.1.072.193.106.293l2,5.454q.109.316.218.6a2.625,2.625,0,0,0,.256.5,1.109,1.109,0,0,0,.385.356,1.167,1.167,0,0,0,.583.135,1.146,1.146,0,0,0,.583-.138,1.132,1.132,0,0,0,.382-.353,2.546,2.546,0,0,0,.252-.5q.109-.284.218-.6l2.038-5.5c.035-.1.069-.2.1-.29a2.434,2.434,0,0,0,.086-.287,1.187,1.187,0,0,0,.035-.273.716.716,0,0,0-.106-.365.8.8,0,0,0-.293-.29.787.787,0,0,0-.4-.109.723.723,0,0,0-.471.141.832.832,0,0,0-.247.316q-.075.175-.224.623l-1.912,5.684-1.906-5.644A3.543,3.543,0,0,0,945.52,690.483Z" transform="translate(-178.248 -76.457)" fill="#010202"/>
    <path id="Trazado_2968" data-name="Trazado 2968" d="M983.058,698.274a1.782,1.782,0,0,0,.209.379.7.7,0,0,0,.241.2.765.765,0,0,0,.344.072.8.8,0,0,0,.589-.244.746.746,0,0,0,.244-.537,2.736,2.736,0,0,0-.258-.9l-2.2-5.431q-.155-.408-.256-.652a2.441,2.441,0,0,0-.247-.456,1.146,1.146,0,0,0-.385-.348,1.193,1.193,0,0,0-.594-.135,1.181,1.181,0,0,0-.589.135,1.119,1.119,0,0,0-.385.353,2.858,2.858,0,0,0-.276.548l-.221.566-2.153,5.466q-.132.327-.189.511a1.188,1.188,0,0,0-.057.356.721.721,0,0,0,.247.534.8.8,0,0,0,.568.235.639.639,0,0,0,.545-.221,3.789,3.789,0,0,0,.4-.853l.4-1.08h3.422l.4,1.057Q982.946,698.019,983.058,698.274Zm-2.322-6.261L982,695.487h-2.515Z" transform="translate(-202.651 -76.457)" fill="#010202"/>
    <path id="Trazado_2969" data-name="Trazado 2969" d="M1016.225,691.024a1.094,1.094,0,0,0-.247.8v6.172a2.513,2.513,0,0,0,.072.663.653.653,0,0,0,.307.4,1.388,1.388,0,0,0,.7.141h2.222a6.588,6.588,0,0,0,1.042-.074,3.345,3.345,0,0,0,.864-.258,2.924,2.924,0,0,0,.741-.488,3.5,3.5,0,0,0,.706-.9,4.079,4.079,0,0,0,.408-1.128,6.71,6.71,0,0,0,.132-1.384,4.258,4.258,0,0,0-1.315-3.422,2.735,2.735,0,0,0-1.125-.6,6,6,0,0,0-1.487-.16h-2.222A1.093,1.093,0,0,0,1016.225,691.024Zm2.584,1.1a4.584,4.584,0,0,1,1.332.169,1.675,1.675,0,0,1,.927.79,3.669,3.669,0,0,1,.376,1.866,3.116,3.116,0,0,1-.855,2.492,1.357,1.357,0,0,1-.448.259,2.09,2.09,0,0,1-.5.115q-.241.023-.666.023h-1.292v-5.713Z" transform="translate(-231.74 -76.874)" fill="#010202"/>
    <path id="Trazado_2970" data-name="Trazado 2970" d="M1054.447,690.517a3.492,3.492,0,0,0-1.286.87,3.822,3.822,0,0,0-.807,1.378,5.443,5.443,0,0,0-.278,1.78,5.634,5.634,0,0,0,.267,1.763,3.837,3.837,0,0,0,.789,1.395,3.508,3.508,0,0,0,1.3.9,5.115,5.115,0,0,0,3.531.008,3.463,3.463,0,0,0,1.3-.9,3.838,3.838,0,0,0,.792-1.384,5.617,5.617,0,0,0,.264-1.774,5.148,5.148,0,0,0-.482-2.3,3.443,3.443,0,0,0-1.421-1.51,4.5,4.5,0,0,0-2.248-.531A4.628,4.628,0,0,0,1054.447,690.517Zm3.821,5.71a2.264,2.264,0,0,1-.873,1.01,2.393,2.393,0,0,1-2.141.138,2.142,2.142,0,0,1-.758-.571,2.66,2.66,0,0,1-.511-.962,4.345,4.345,0,0,1-.181-1.3,4.242,4.242,0,0,1,.181-1.283,2.676,2.676,0,0,1,.494-.939,2.077,2.077,0,0,1,.746-.56,2.3,2.3,0,0,1,.944-.192,2.345,2.345,0,0,1,1.272.347,2.232,2.232,0,0,1,.853,1.025,3.952,3.952,0,0,1,.3,1.6A3.91,3.91,0,0,1,1058.268,696.227Z" transform="translate(-258.595 -76.457)" fill="#010202"/>
    <path id="Trazado_2971" data-name="Trazado 2971" d="M1096.654,695.715a1.624,1.624,0,0,1,.588.448,6.275,6.275,0,0,1,.658.953l.683,1.137q.241.4.382.609a1.3,1.3,0,0,0,.336.342.827.827,0,0,0,.482.135.914.914,0,0,0,.425-.095.748.748,0,0,0,.29-.258.6.6,0,0,0,.106-.33,1.9,1.9,0,0,0-.181-.589,7.435,7.435,0,0,0-.505-.959,7.2,7.2,0,0,0-.738-1,3.109,3.109,0,0,0-.867-.712,3.052,3.052,0,0,0,1.611-.8,2.1,2.1,0,0,0,.531-1.5,2.4,2.4,0,0,0-.158-.87,2.084,2.084,0,0,0-.462-.721,2.129,2.129,0,0,0-.7-.476,2.464,2.464,0,0,0-.735-.2,8.444,8.444,0,0,0-.982-.049h-2.773a.9.9,0,0,0-1.045,1.045V698.3a1.171,1.171,0,0,0,.224.775.783.783,0,0,0,.631.264.8.8,0,0,0,.614-.253,1.122,1.122,0,0,0,.236-.786v-2.7h.6A2.023,2.023,0,0,1,1096.654,695.715Zm1.4-3.531a1.076,1.076,0,0,1,.494.4,1.087,1.087,0,0,1,.178.617,1.039,1.039,0,0,1-.221.7,1.21,1.21,0,0,1-.64.362,4.271,4.271,0,0,1-1.033.106H1095.3v-2.314h1.573a3.556,3.556,0,0,1,1.177.126Z" transform="translate(-289.485 -76.874)" fill="#010202"/>
    <path id="Trazado_2972" data-name="Trazado 2972" d="M1136.5,691.911a.619.619,0,0,0,.2-.479.612.612,0,0,0-.2-.474.875.875,0,0,0-.606-.181h-4.5a1.438,1.438,0,0,0-.594.106.678.678,0,0,0-.342.339,1.418,1.418,0,0,0-.109.6v6.327a.893.893,0,0,0,1.045,1.045h4.634a.869.869,0,0,0,.606-.186.627.627,0,0,0,.2-.485.641.641,0,0,0-.2-.5.87.87,0,0,0-.606-.186h-3.973v-2.394h3.537a.823.823,0,0,0,.586-.181.618.618,0,0,0,.189-.468.6.6,0,0,0-.193-.462.842.842,0,0,0-.583-.175h-3.537v-2.067h3.841A.876.876,0,0,0,1136.5,691.911Z" transform="translate(-316.823 -76.874)" fill="#010202"/>
    <path id="Trazado_2973" data-name="Trazado 2973" d="M1169.968,695.174a2.006,2.006,0,0,0-.631-.726,3.909,3.909,0,0,0-.982-.488,12.736,12.736,0,0,0-1.289-.367q-.568-.144-.815-.218a2.576,2.576,0,0,1-.488-.207,1.154,1.154,0,0,1-.379-.316.706.706,0,0,1-.138-.436.843.843,0,0,1,.4-.7,1.789,1.789,0,0,1,1.065-.29,1.613,1.613,0,0,1,1.033.267,2.174,2.174,0,0,1,.551.744,1.969,1.969,0,0,0,.33.479.617.617,0,0,0,.445.146.688.688,0,0,0,.537-.244.807.807,0,0,0,.215-.549,1.541,1.541,0,0,0-.172-.683,2.128,2.128,0,0,0-.545-.669,2.833,2.833,0,0,0-.939-.511,4.183,4.183,0,0,0-1.341-.192,4.5,4.5,0,0,0-1.688.29,2.39,2.39,0,0,0-1.1.83,2.1,2.1,0,0,0-.379,1.234,2.01,2.01,0,0,0,.359,1.22,2.455,2.455,0,0,0,.97.775,7.938,7.938,0,0,0,1.519.5q.678.155,1.083.293a1.651,1.651,0,0,1,.66.4.932.932,0,0,1,.255.68,1.062,1.062,0,0,1-.474.881,2.008,2.008,0,0,1-1.232.353,1.943,1.943,0,0,1-.89-.175,1.408,1.408,0,0,1-.525-.445,3.408,3.408,0,0,1-.347-.672,1.357,1.357,0,0,0-.319-.511.649.649,0,0,0-.456-.172.745.745,0,0,0-.764.752,2.051,2.051,0,0,0,.359,1.1,2.737,2.737,0,0,0,.933.9,4.043,4.043,0,0,0,2.056.471,4.312,4.312,0,0,0,1.8-.344,2.613,2.613,0,0,0,1.151-.953,2.473,2.473,0,0,0,.393-1.372A2.324,2.324,0,0,0,1169.968,695.174Z" transform="translate(-341.492 -76.457)" fill="#010202"/>
    <path id="Trazado_2974" data-name="Trazado 2974" d="M727.832,611.238,720.1,588.793h-8l-7.614,22.445h6.146l1.481-4.423h6.607l1.394,4.423ZM715.386,595.4l2,6.511h-3.99Z" transform="translate(0 -1.004)" fill="#e1231d"/>
    <path id="Trazado_2975" data-name="Trazado 2975" d="M828.845,607.357a11.487,11.487,0,0,0,3.271-8.567,10.871,10.871,0,0,0-3.243-8.255,11.667,11.667,0,0,0-8.393-3.091q-5.565,0-8.7,3.281a11.545,11.545,0,0,0-3.135,8.312,11.09,11.09,0,0,0,3.28,8.4,11.758,11.758,0,0,0,8.484,3.141A11.512,11.512,0,0,0,828.845,607.357Zm-12.053-8.139q0-6.676,3.723-6.676,3.451,0,3.451,5.854,0,4.045-.84,5.566a2.905,2.905,0,0,1-2.756,1.521q-3.578,0-3.578-6.265Z" transform="translate(-77.494 0)" fill="#e1231d"/>
    <path id="Trazado_2976" data-name="Trazado 2976" d="M924.727,588.793l-4.145,7.4-4.323-7.4h-8.284l8.3,12.941v9.5h7.354v-9.5l7.72-12.941Z" transform="translate(-151.391 -1.004)" fill="#e1231d"/>
    <path id="Trazado_2977" data-name="Trazado 2977" d="M1024.681,611.238l-7.736-22.445h-8l-7.614,22.445h6.146l1.481-4.423h6.608l1.394,4.423ZM1012.235,595.4l2,6.511h-3.99Z" transform="translate(-220.839 -1.004)" fill="#e1231d"/>
    <path id="Trazado_2978" data-name="Trazado 2978" d="M1129.858,588.793l-3.415,11.921-3.578-11.921h-9.893v22.445h5.674V595.189l4.743,16.049h4.806l4.563-16.049v16.049h7.029V588.793Z" transform="translate(-303.898 -1.004)" fill="#e1231d"/>
    <path id="Trazado_2979" data-name="Trazado 2979" d="M1261.487,611.238l-7.736-22.445h-8l-7.614,22.445h6.147l1.481-4.423h6.607l1.394,4.423ZM1249.042,595.4l2,6.511h-3.99Z" transform="translate(-397.01 -1.004)" fill="#e1231d"/>
  </g>
</svg>
